<svg xmlns="http://www.w3.org/2000/svg" xmlns:xlink="http://www.w3.org/1999/xlink" width="132" height="132" version="1.1" viewBox="0 0 200 200"><title>loc_stonefound</title><defs><linearGradient id="linearGradient-1" x1="0%" x2="100%" y1="100%" y2="50%"><stop offset="0%" stop-color="#7B9F9C"/><stop offset="100%" stop-color="#FFF"/></linearGradient><linearGradient id="linearGradient-2" x1="100%" x2="0%" y1="100%" y2="0%"><stop offset="0%" stop-color="#02E9EB"/><stop offset="100%" stop-color="#106E75"/></linearGradient><linearGradient id="linearGradient-3" x1="50%" x2="11.422%" y1="50%" y2="70.987%"><stop offset="0%" stop-color="#FFF" stop-opacity="0"/><stop offset="35.314%" stop-color="#FFF" stop-opacity=".431"/><stop offset="100%" stop-color="#FFF"/></linearGradient><linearGradient id="linearGradient-4" x1="50%" x2="11.422%" y1="50%" y2="54.35%"><stop offset="0%" stop-color="#FFF" stop-opacity="0"/><stop offset="35.314%" stop-color="#FFF" stop-opacity=".431"/><stop offset="100%" stop-color="#FFF"/></linearGradient><linearGradient id="linearGradient-5" x1="50%" x2="11.422%" y1="50%" y2="72.631%"><stop offset="0%" stop-color="#FFF" stop-opacity="0"/><stop offset="35.314%" stop-color="#FFF" stop-opacity=".431"/><stop offset="100%" stop-color="#FFF"/></linearGradient><linearGradient id="linearGradient-6" x1="0%" x2="35.638%" y1="12.189%" y2="50%"><stop offset="0%" stop-color="#FFF" stop-opacity=".588"/><stop offset="61.735%" stop-color="#FFF" stop-opacity=".645"/><stop offset="100%" stop-color="#FFF" stop-opacity="0"/></linearGradient></defs><g id="页面-1" fill="none" fill-rule="evenodd" stroke="none" stroke-width="1" transform="translate(100,0)rotate(45)"><g id="loc_stonefound" transform="translate(-28.000000, -28.000000)"><path id="形状结合" fill="#D8D8D8" stroke="#000" stroke-width="4" d="M158,30 L158,158 L30,158 L30,30 L158,30 Z M140,48 L48,48 L48,140 L140,140 L140,48 Z"/><path id="形状结合备份" fill="#FFF" d="M160,28 L160,160 L28,160 L28,28 L160,28 Z M138,50 L50,50 L50,138 L138,138 L138,50 Z"/><path id="形状结合" stroke="#040404" stroke-width="4" d="M158,30 L158,158 L30,158 L30,30 L158,30 Z M140,48 L48,48 L48,140 L140,140 L140,48 Z"/><rect id="矩形" width="88" height="88" x="50" y="50" fill="#FFF"/><rect id="矩形" width="95" height="95" x="46.5" y="46.5" stroke="url(#linearGradient-1)" stroke-width="7"/><path id="形状结合" fill="#00E8F2" stroke="#040404" stroke-width="4" d="M158,30 L158,92 L140,92 L140,48 L48,48 L48,140 L92,140 L92,158 L30,158 L30,30 L158,30 Z"/><rect id="矩形" width="23" height="23" x="135" y="135" fill="url(#linearGradient-2)" stroke="#000" stroke-width="4"/><path id="路径备份-35" fill="url(#linearGradient-3)" d="M134.862041,149.340471 L137.080916,143.427862 L137.080916,143.427862 L145.820155,152.043175 L136.734528,152.043175 C135.629958,152.043175 134.734528,151.147744 134.734528,150.043175 C134.734528,149.803187 134.777721,149.565158 134.862041,149.340471 Z" transform="translate(139.833965, 147.735518) scale(-1, 1) rotate(-315.000000) translate(-139.833965, -147.735518)"/><path id="路径备份-38" fill="url(#linearGradient-4)" d="M142.196826,152.827805 L145.858412,150.778161 L145.858412,150.778161 L150.823916,154.700397 L142.685277,154.700397 C142.132992,154.700397 141.685277,154.252681 141.685277,153.700397 C141.685277,153.33838 141.880934,153.004632 142.196826,152.827805 Z" transform="translate(144.837725, 152.739279) scale(-1, -1) rotate(-45.000000) translate(-144.837725, -152.739279)"/><path id="路径备份-41" fill="url(#linearGradient-5)" d="M149.496711,143.45717 L152.295828,139.461684 L152.295828,139.461684 L157.4264,145.424859 L151.514536,146.568328 C150.430066,146.778086 149.380887,146.068991 149.171129,144.984521 C149.068191,144.452319 149.185687,143.901128 149.496711,143.45717 Z" transform="translate(152.042807, 143.484563) scale(1, -1) rotate(-285.000000) translate(-152.042807, -143.484563)"/><path id="形状结合" fill="url(#linearGradient-6)" d="M121,43 L121,46 L46,46 L46,121 L43,121 L43,43 L121,43 Z"/></g></g></svg>