<?xml version="1.0" encoding="UTF-8"?>
<svg width="77px" height="77px" viewBox="0 0 77 77" version="1.1" xmlns="http://www.w3.org/2000/svg" xmlns:xlink="http://www.w3.org/1999/xlink">
    <title>close_btn</title>
    <g id="页面-1" stroke="none" stroke-width="1" fill="none" fill-rule="evenodd">
        <g id="tipcard_notfind_包含切图" transform="translate(-692.000000, -44.000000)" fill="#65667F" stroke="#2A3260" stroke-width="3">
            <g id="关闭按钮" transform="translate(659.574116, 11.557612)">
                <path d="M71.5521543,21.4423882 L87.8124649,40.1657246 L78.2658839,40.1653882 L78.2658839,64.6083882 L102.701884,64.6083882 L102.702547,55.0625113 L121.425884,71.3228219 L102.702547,87.5831324 L102.701884,78.2783882 L78.2658839,78.2783882 L78.2658839,102.718388 L87.8124649,102.719052 L71.5521543,121.442388 L55.2918438,102.719052 L64.5958839,102.718388 L64.5958839,78.2783882 L40.1488839,78.2783882 L40.1492203,87.5831324 L21.4258839,71.3228219 L40.1492203,55.0625113 L40.1488839,64.6083882 L64.5958839,64.6083882 L64.5958839,40.1653882 L55.2918438,40.1657246 L71.5521543,21.4423882 Z" transform="translate(71.425884, 71.442388) rotate(-45.000000) translate(-71.425884, -71.442388) "></path>
            </g>
        </g>
    </g>
</svg>