<svg xmlns="http://www.w3.org/2000/svg" xmlns:xlink="http://www.w3.org/1999/xlink" width="11" height="6" version="1.1" viewBox="0 0 11 6"><title>chevron-dn</title><path id="chevron-dn" fill="#000" fill-rule="nonzero" d="M5.534272,6.0298794 C5.69259,6.0298794 5.850909,5.9685299 5.958569,5.8519697 L10.86013,0.9869368 C10.967777,0.8826395 11.031107,0.7476724 11.031107,0.5942985 C11.031107,0.2752752 10.784129,0.0298794 10.454834,0.0298794 C10.296515,0.0298794 10.150855,0.0912315 10.043195,0.1893848 L5.534272,4.6556481 L1.01902,0.1893848 C0.917689,0.0912315 0.772042,0.0298794 0.607381,0.0298794 C0.278085,0.0298794 0.031107,0.2752752 0.031107,0.5942985 C0.031107,0.7476724 0.094437,0.8826395 0.202084,0.9930682 L5.103646,5.8519697 C5.223964,5.9685299 5.369624,6.0298794 5.534272,6.0298794 Z"/></svg>