<?xml version="1.0" encoding="UTF-8"?>
<svg width="198px" height="198px" viewBox="0 0 198 198" version="1.1" xmlns="http://www.w3.org/2000/svg" xmlns:xlink="http://www.w3.org/1999/xlink">
    <title>stone</title>
    <defs>
        <linearGradient x1="49.9999881%" y1="5.75161743%" x2="37.9885611%" y2="64.3821221%" id="linearGradient-1">
            <stop stop-color="#FFD692" offset="0%"></stop>
            <stop stop-color="#FFB600" offset="100%"></stop>
        </linearGradient>
        <linearGradient x1="18.9989412%" y1="18.7006649%" x2="78.1499361%" y2="75.7817098%" id="linearGradient-2">
            <stop stop-color="#AE6F08" offset="0%"></stop>
            <stop stop-color="#FFEFA5" offset="100%"></stop>
        </linearGradient>
    </defs>
    <g id="页面-1" stroke="none" stroke-width="1" fill="none" fill-rule="evenodd">
        <g id="岩神瞳方案3">
            <g id="编组-8备份" transform="translate(-5.000000, -5.000000)" fill="url(#linearGradient-1)" stroke="#000000" stroke-opacity="0.502513112" stroke-width="10">
                <path d="M98.9214541,11.3877036 C101.126014,10.0878808 103.826439,9.62906924 106.500193,10.3193603 C108.261477,10.7740762 109.829807,11.6891229 111.071496,12.9308115 C112.313184,14.1725001 113.228231,15.7408307 113.682947,17.5021142 L113.682947,17.5021142 L119.512,40.0802017 C122.576569,51.9504153 128.743548,62.5202178 137.111937,70.88861 C145.480327,79.2570021 156.050128,85.4239839 167.920341,88.488556 L167.920341,88.488556 L190.49791,94.3174817 C193.171663,95.0077735 195.312497,96.7164682 196.612319,98.9210284 C197.912141,101.125589 198.370952,103.826014 197.68066,106.499768 C197.225944,108.26105 196.310898,109.82938 195.06921,111.071068 C193.827522,112.312756 192.259192,113.227802 190.49791,113.682518 L190.49791,113.682518 L167.920341,119.511444 C156.050128,122.576016 145.480327,128.742998 137.111937,137.11139 C128.743548,145.479782 122.576569,156.049585 119.512,167.919798 L119.512,167.919798 L113.682947,190.497886 C112.992656,193.17164 111.283962,195.312474 109.079402,196.612296 C106.874842,197.912119 104.174417,198.370931 101.500663,197.68064 C99.7393794,197.225924 98.1710489,196.310877 96.9293602,195.069188 C95.6876716,193.8275 94.7726249,192.259169 94.317909,190.497886 L94.317909,190.497886 L88.4889256,167.920067 C85.4243373,156.049778 79.2573119,145.479912 70.8888595,137.111479 C62.5204071,128.743045 51.9505278,122.576043 40.0802315,119.511481 L40.0802315,119.511481 L17.5023086,113.682525 C14.8285533,112.992239 12.6877154,111.28355 11.3878877,109.078993 C10.08806,106.874436 9.62924241,104.174012 10.3195275,101.500256 C10.7742415,99.7389642 11.6892906,98.1706259 12.9309843,96.9289322 C14.172678,95.6872385 15.7410163,94.7721894 17.5023086,94.3174754 L17.5023086,94.3174754 L40.0802315,88.4885187 C51.9505278,85.4239568 62.5204071,79.256955 70.8888595,70.8885213 C79.2573119,62.5200876 85.4243373,51.950222 88.4889256,40.0799326 L88.4889256,40.0799326 L94.317909,17.5021142 C95.0082001,14.8283604 96.7168942,12.6875264 98.9214541,11.3877036 Z" id="Fill-1备份-9"></path>
            </g>
            <path d="M161.872422,88.1026309 L184.449991,93.9315566 C187.123744,94.6218484 188.731658,97.3489461 188.041366,100.0227 C187.58665,101.783982 186.211273,103.159359 184.449991,103.614075 L161.872422,109.443001 C136.370713,116.026861 116.456559,135.941021 109.872705,161.442732 L104.043652,184.020819 C103.353361,186.694573 100.626264,188.302487 97.9525102,187.612196 C96.1912267,187.15748 94.8158491,185.782103 94.3611333,184.020819 L88.5321499,161.443001 C84.260742,144.898251 74.3785946,130.70531 61,120.978466 C72.3933947,93.5654842 93.0088689,70.9494826 118.973359,57 C128.683141,72.1872049 143.88838,83.4596313 161.872422,88.1026309 Z" id="形状结合备份-19" fill="url(#linearGradient-2)"></path>
        </g>
    </g>
</svg>