<?xml version="1.0" encoding="UTF-8"?>
<svg width="188px" height="188px" viewBox="0 0 188 188" version="1.1" xmlns="http://www.w3.org/2000/svg" xmlns:xlink="http://www.w3.org/1999/xlink">
    <title>stone</title>
    <defs>
        <linearGradient x1="18.9989412%" y1="18.7006649%" x2="78.1499361%" y2="75.7817098%" id="linearGradient-1">
            <stop stop-color="#AE6F08" offset="0%"></stop>
            <stop stop-color="#FFEFA5" offset="100%"></stop>
        </linearGradient>
    </defs>
    <g id="页面-1" stroke="none" stroke-width="1" fill="none" fill-rule="evenodd">
        <g id="编组-8备份" transform="translate(-10.000000, -10.000000)">
            <path d="M100.191198,13.5412475 C101.844617,12.5663804 103.869937,12.2222718 105.875252,12.7399901 C107.196215,13.081027 108.372462,13.767312 109.303729,14.6985785 C110.234995,15.6298449 110.92128,16.8060928 111.262317,18.1270555 L111.262317,18.1270555 L117.09137,40.705143 C120.269618,53.0156774 126.665358,63.9775624 135.34417,72.6563767 C144.022982,81.335191 154.984865,87.7309344 167.295399,90.9091856 L167.295399,90.9091856 L189.872968,96.7381113 C191.878283,97.2558301 193.483908,98.5373512 194.458775,100.190771 C195.433642,101.844191 195.77775,103.869511 195.260031,105.874826 C194.918994,107.195788 194.232709,108.372035 193.301443,109.303301 C192.370177,110.234567 191.19393,110.920852 189.872968,111.261889 L189.872968,111.261889 L167.295399,117.090814 C154.984865,120.269066 144.022982,126.664809 135.34417,135.343623 C126.665358,144.022438 120.269618,154.984323 117.09137,167.294857 L117.09137,167.294857 L111.262317,189.872945 C110.744599,191.87826 109.463078,193.483885 107.809659,194.458752 C106.156239,195.43362 104.13092,195.777728 102.125604,195.26001 C100.804642,194.918973 99.6283937,194.232688 98.6971272,193.301422 C97.7658607,192.370155 97.0795757,191.193907 96.7385388,189.872945 L96.7385388,189.872945 L90.9095554,167.295126 C87.7312878,154.984515 81.3355,144.022566 72.6566245,135.34371 C63.977749,126.664854 53.0157858,120.26909 40.7051674,117.09085 L40.7051674,117.09085 L18.1272445,111.261893 C16.121928,110.74418 14.5162996,109.462663 13.5414288,107.809245 C12.566558,106.155827 12.2224448,104.130509 12.7401587,102.125192 C13.0811941,100.804223 13.767481,99.6279694 14.6987513,98.6966991 C15.6300215,97.7654289 16.8062753,97.079142 18.1272445,96.7381066 L18.1272445,96.7381066 L40.7051674,90.9091499 C53.0157858,87.7309097 63.977749,81.3351464 72.6566245,72.6562902 C81.3355,63.9774341 87.7312878,53.0154851 90.9095554,40.7048739 L90.9095554,40.7048739 L96.7385388,18.1270555 C97.2562571,16.1217401 98.5377777,14.5161146 100.191198,13.5412475 Z" id="Fill-1备份-9" stroke-opacity="0.599240603" stroke="#000000" stroke-width="5" fill="#EEEEEE"></path>
            <path d="M166.872422,93.3298151 L189.449991,99.1587408 C192.123744,99.8490327 193.731658,102.57613 193.041366,105.249884 C192.58665,107.011166 191.211273,108.386543 189.449991,108.841259 L166.872422,114.670185 C141.370713,121.254045 121.456559,141.168205 114.872705,166.669916 L109.043652,189.248003 C108.353361,191.921757 105.626264,193.529671 102.95251,192.83938 C101.191227,192.384664 99.8158491,191.009287 99.3611333,189.248003 L93.5321499,166.670185 C89.260742,150.125435 79.3785946,135.932494 66,126.20565 C77.3933947,98.7926684 98.0088689,76.1766668 123.973359,62.2271842 C133.683141,77.4143891 148.88838,88.6868155 166.872422,93.3298151 Z" id="形状结合备份-18" fill="url(#linearGradient-1)"></path>
        </g>
    </g>
</svg>