<?xml version="1.0" encoding="UTF-8"?>
<svg width="188px" height="188px" viewBox="0 0 188 188" version="1.1" xmlns="http://www.w3.org/2000/svg" xmlns:xlink="http://www.w3.org/1999/xlink">
    <title>loc_notfind_line_2.0</title>
    <defs>
        <linearGradient x1="100%" y1="100%" x2="0%" y2="0%" id="linearGradient-1">
            <stop stop-color="#234841" offset="0%"></stop>
            <stop stop-color="#ECFFFF" offset="100%"></stop>
        </linearGradient>
        <linearGradient x1="0%" y1="0%" x2="100%" y2="100%" id="linearGradient-2">
            <stop stop-color="#FFFFFF" offset="0%"></stop>
            <stop stop-color="#070707" offset="11.0249126%"></stop>
            <stop stop-color="#0A0A0A" offset="21.8230988%"></stop>
            <stop stop-color="#1D1D1D" offset="66.7285839%"></stop>
            <stop stop-color="#192323" offset="81.4057037%"></stop>
            <stop stop-color="#FFFFFF" offset="100%"></stop>
        </linearGradient>
        <linearGradient x1="13.8816763%" y1="14.2163953%" x2="84.9419441%" y2="85.1805964%" id="linearGradient-3">
            <stop stop-color="#7B9F9C" offset="0%"></stop>
            <stop stop-color="#FFFFFF" offset="100%"></stop>
        </linearGradient>
        <linearGradient x1="50%" y1="50%" x2="11.4218876%" y2="72.7977817%" id="linearGradient-4">
            <stop stop-color="#FFFFFF" stop-opacity="0" offset="0%"></stop>
            <stop stop-color="#FFFFFF" stop-opacity="0.430588942" offset="35.314181%"></stop>
            <stop stop-color="#FFFFFF" offset="100%"></stop>
        </linearGradient>
        <linearGradient x1="50%" y1="50%" x2="11.4218876%" y2="54.5032655%" id="linearGradient-5">
            <stop stop-color="#FFFFFF" stop-opacity="0" offset="0%"></stop>
            <stop stop-color="#FFFFFF" stop-opacity="0.430588942" offset="35.314181%"></stop>
            <stop stop-color="#FFFFFF" offset="100%"></stop>
        </linearGradient>
        <linearGradient x1="50%" y1="50%" x2="11.4218876%" y2="72.6307794%" id="linearGradient-6">
            <stop stop-color="#FFFFFF" stop-opacity="0" offset="0%"></stop>
            <stop stop-color="#FFFFFF" stop-opacity="0.430588942" offset="35.314181%"></stop>
            <stop stop-color="#FFFFFF" offset="100%"></stop>
        </linearGradient>
        <linearGradient x1="20.9534717%" y1="38.9911243%" x2="28.4586872%" y2="51.8762486%" id="linearGradient-7">
            <stop stop-color="#FFFFFF" offset="0%"></stop>
            <stop stop-color="#FFFFFF" stop-opacity="0" offset="100%"></stop>
        </linearGradient>
        <linearGradient x1="84.0640007%" y1="14.7449049%" x2="22.0202678%" y2="77.5079524%" id="linearGradient-8">
            <stop stop-color="#FFFFFF" offset="0%"></stop>
            <stop stop-color="#C6C6C6" offset="100%"></stop>
        </linearGradient>
        <linearGradient x1="20.9534717%" y1="38.9911243%" x2="32.6417443%" y2="67.418668%" id="linearGradient-9">
            <stop stop-color="#C0CDCB" offset="0%"></stop>
            <stop stop-color="#7B8583" stop-opacity="0.562937063" offset="36.6149476%"></stop>
            <stop stop-color="#FFFFFF" stop-opacity="0" offset="100%"></stop>
        </linearGradient>
    </defs>
    <g id="页面-1" stroke="none" stroke-width="1" fill="none" fill-rule="evenodd">
        <g id="loc_notfind_line_2.0">
            <path d="M94.27417,0.13708499 C138.45695,0.13708499 174.27417,35.954305 174.27417,80.137085 L174.27417,145.137085 C174.27417,153.421356 167.558441,160.137085 159.27417,160.137085 L94.27417,160.137085 C50.09139,160.137085 14.27417,124.319865 14.27417,80.137085 C14.27417,35.954305 50.09139,0.13708499 94.27417,0.13708499 Z M94.27417,15.137085 C58.3756612,15.137085 29.27417,44.2385763 29.27417,80.137085 C29.27417,116.035594 58.3756612,145.137085 94.27417,145.137085 C130.172679,145.137085 159.27417,116.035594 159.27417,80.137085 C159.27417,44.2385763 130.172679,15.137085 94.27417,15.137085 Z" id="形状结合备份-30" fill="#FFFFFF" transform="translate(94.274170, 80.137085) rotate(-315.000000) translate(-94.274170, -80.137085) "></path>
            <path d="M94.27417,2.13708499 C115.813275,2.13708499 135.313275,10.8675324 149.428499,24.9827561 C163.543723,39.0979797 172.27417,58.5979797 172.27417,80.137085 L172.27417,80.137085 L172.27417,145.137085 C172.27417,148.726936 170.819095,151.976936 168.466558,154.329473 C166.114021,156.68201 162.864021,158.137085 159.27417,158.137085 L159.27417,158.137085 L94.27417,158.137085 C72.7350647,158.137085 53.2350647,149.406638 39.119841,135.291414 C25.0046174,121.17619 16.27417,101.67619 16.27417,80.137085 C16.27417,58.5979797 25.0046174,39.0979797 39.119841,24.9827561 C53.2350647,10.8675324 72.7350647,2.13708499 94.27417,2.13708499 Z" id="形状结合备份-33" stroke="#000000" stroke-width="4" transform="translate(94.274170, 80.137085) rotate(-315.000000) translate(-94.274170, -80.137085) "></path>
            <path d="M79.27417,157.213203 L109.27417,157.213203 L109.27417,173.213203 C109.27417,180.94519 103.006156,187.213203 95.27417,187.213203 L79.27417,187.213203 L79.27417,187.213203 L79.27417,157.213203 Z" id="矩形备份-32" fill="#000000" transform="translate(94.274170, 172.213203) rotate(-315.000000) translate(-94.274170, -172.213203) "></path>
            <path d="M104.77417,161.713203 L104.77417,172.213203 C104.77417,175.112698 103.598917,177.737698 101.698791,179.637825 C99.7986649,181.537951 97.1736649,182.713203 94.27417,182.713203 L94.27417,182.713203 L83.77417,182.713203 L83.77417,161.713203 L104.77417,161.713203 Z" id="矩形备份-35" stroke="url(#linearGradient-2)" fill="url(#linearGradient-1)" transform="translate(94.274170, 172.213203) rotate(-315.000000) translate(-94.274170, -172.213203) "></path>
            <circle id="椭圆形备份-21" stroke="url(#linearGradient-3)" stroke-width="7" fill="#FFFFFF" cx="94.137085" cy="80" r="61.5"></circle>
            <path d="M83.1011815,169.32245 L85.3776851,163 L85.3776851,163 L94.137085,172 L84.9829164,172 C83.8783469,172 82.9829164,171.104569 82.9829164,170 C82.9829164,169.769015 83.0229296,169.539776 83.1011815,169.32245 Z" id="路径备份-34" fill="url(#linearGradient-4)" opacity="0.319266183" transform="translate(88.137085, 167.500000) scale(-1, 1) translate(-88.137085, -167.500000) "></path>
            <path d="M85.4185028,174.131056 L89.1601264,172 L89.1601264,172 L94.137085,176 L85.9134132,176 C85.3611284,176 84.9134132,175.552285 84.9134132,175 C84.9134132,174.640637 85.1062369,174.308908 85.4185028,174.131056 Z" id="路径备份-37" fill="url(#linearGradient-5)" opacity="0.319266183" transform="translate(88.137085, 174.000000) scale(-1, -1) rotate(-360.000000) translate(-88.137085, -174.000000) "></path>
            <path d="M97.5591183,172.70132 L100.358235,168.705834 L100.358235,168.705834 L105.488807,174.669009 L99.5769433,175.812478 C98.4924732,176.022236 97.4432943,175.313141 97.2335367,174.228671 C97.1305986,173.69647 97.2480946,173.145279 97.5591183,172.70132 Z" id="路径备份-40" fill="url(#linearGradient-6)" opacity="0.319266183" transform="translate(100.105214, 172.728713) scale(1, -1) rotate(-330.000000) translate(-100.105214, -172.728713) "></path>
            <path d="M94.137085,15 C128.756761,15 157.066837,41.9641466 159.137085,75.9994404 L156.125553,75.999002 C154.059702,43.6219426 127.096158,17.9999843 94.137085,17.9999843 C61.178012,17.9999843 34.2144675,43.6219426 32.1486174,75.999002 L29.137085,75.9994404 C31.2073326,41.9641466 59.5174088,15 94.137085,15 Z" id="形状结合备份-41" fill="url(#linearGradient-7)"></path>
            <path d="M94.137085,2 C115.67619,2 135.17619,10.7304474 149.291414,24.8456711 C163.406638,38.9608948 172.137085,58.4608948 172.137085,80 C172.137085,101.305595 163.594931,120.616077 149.748584,134.693362 C135.880619,148.792627 116.69197,157.642618 95.435668,157.989414 L96.137,157.974 L96.137085,140.174126 C111.546023,139.665196 125.471908,133.297285 135.758487,123.226648 L136.209938,122.77996 C146.977321,112.012578 153.637085,97.1375781 153.637085,80.7071068 C153.637085,64.2766355 146.977321,49.4016355 136.209938,38.6342533 C125.442556,27.8668711 110.567556,21.2071068 94.137085,21.2071068 C77.8390425,21.2071068 63.0715122,27.7599653 52.3253893,38.374697 C42.0028337,48.5710402 35.3911112,62.5154203 34.6975963,77.9998671 L34.6975963,77.9998671 L16.162227,77.9999869 C16.6843384,57.255351 25.3057317,38.5226955 38.9827561,24.8456711 C53.0979797,10.7304474 72.5979797,2 94.137085,2 Z" id="形状结合" stroke="#000000" stroke-width="4" fill="url(#linearGradient-8)" transform="translate(94.137085, 80.000000) rotate(-45.000000) translate(-94.137085, -80.000000) "></path>
            <path d="M95.137085,16 C129.756761,16 158.066837,42.9641466 160.137085,76.9994404 L157.125553,76.999002 C155.059702,44.6219426 128.096158,18.9999843 95.137085,18.9999843 C62.178012,18.9999843 35.2144675,44.6219426 33.1486174,76.999002 L30.137085,76.9994404 C32.2073326,42.9641466 60.5174088,16 95.137085,16 Z" id="形状结合备份-42" fill="url(#linearGradient-9)"></path>
        </g>
    </g>
</svg>